<svg width="28" height="28" viewBox="0 0 28 28" fill="none" xmlns="http://www.w3.org/2000/svg">
<path d="M14.6522 27.9973H19.0166V28C18.2756 28 16.5171 28 14.6522 27.9973ZM6.92952 0.0163928C6.30058 0.0273757 5.66624 0.0683379 5.09739 0.175035C4.47927 0.292553 3.91596 0.448471 3.3526 0.735533C2.78111 1.02536 2.28894 1.42193 1.84857 1.85116C1.4193 2.29137 1.02285 2.7863 0.732917 3.35505C0.448513 3.91835 0.289856 4.47885 0.172246 5.09955C0.0657009 5.66835 0.0245715 6.30263 0.0135875 6.93167C0.0109025 7.07384 0.0109028 7.20511 0.00813649 7.4102L0 19.7149C0 19.8707 0.00268487 20.0402 0.00268487 20.2263C0.00813618 20.6719 0.0109432 20.8551 0.0136281 21.0656C0.0246122 21.6945 0.0657416 22.329 0.172286 22.8977C0.224237 23.1684 0.281638 23.4282 0.355475 23.6797C0.451239 24.005 0.571534 24.3223 0.732958 24.6394C1.02285 25.211 1.41934 25.7031 1.84861 26.1433C2.28898 26.5727 2.78396 26.9691 3.35264 27.259C3.916 27.5434 4.47667 27.702 5.09743 27.8196C5.66628 27.9261 6.30062 27.9671 6.92956 27.9781C7.14013 27.9809 7.32332 27.9835 7.76914 27.989C8.19296 27.9918 8.54026 27.9945 8.79729 27.9945H14.6494V17.1391H11.13V13.0785H14.6248V9.29948C14.6248 6.39835 16.8673 4.32017 19.7659 4.32017L23.5179 4.4023V8.30145H20.652C19.8235 8.30145 19.1506 9.21751 19.1506 10.0488V13.0785H23.3785L22.7768 17.1417H19.0167V27.9972H19.1973C19.4543 27.9972 19.8016 27.9944 20.2254 27.9918C20.5782 27.989 20.7669 27.9863 20.9336 27.9863C20.9774 27.9863 21.0212 27.9863 21.0677 27.9835C21.6966 27.9725 22.3311 27.9316 22.8999 27.8249C23.5179 27.7074 24.0812 27.5514 24.6446 27.2644C25.2161 26.9745 25.7083 26.5781 26.1486 26.1487C26.5779 25.7085 26.9745 25.2136 27.2644 24.6448C27.5488 24.0816 27.7073 23.521 27.8249 22.9003C27.9316 22.3315 27.9726 21.6972 27.9836 21.0682C27.9863 20.8577 27.9891 20.6745 27.9946 20.2288C27.9972 19.805 28 19.4578 28 19.2008V8.80195V8.50394C28 8.29604 27.9972 8.05002 27.9946 7.77105C27.9891 7.32539 27.9863 7.14222 27.9836 6.93167C27.9726 6.30267 27.9317 5.66835 27.8249 5.09955C27.7073 4.48166 27.5515 3.91835 27.2644 3.35505C26.9745 2.78361 26.5779 2.29133 26.1486 1.85116C25.7083 1.42193 25.2134 1.02536 24.6446 0.735533C24.0812 0.451115 23.5206 0.292512 22.8999 0.175035C22.3311 0.0683786 21.6966 0.0273757 21.0677 0.0163928C20.8571 0.013586 20.6739 0.010942 20.2282 0.0054505C19.8016 0.00264375 19.4543 0 19.1973 0H8.79725C8.54022 0 8.19292 0.00268442 7.7691 0.0054505C7.32328 0.0109013 7.14009 0.013586 6.92952 0.0163928Z" fill="white"/>
</svg>
