<svg width="28" height="28" viewBox="0 0 28 28" fill="none" xmlns="http://www.w3.org/2000/svg">
<path d="M23.297 0H4.70297C2.11628 0 0 2.11628 0 4.70297V23.297C0 25.8837 2.11628 28 4.70297 28H23.297C25.8837 28 28 25.8837 28 23.297V4.70297C28 2.11628 25.8837 0 23.297 0ZM10.4997 22.7505H6.99958V10.5002H10.4997V22.7505ZM8.74962 8.75018C7.78304 8.75018 6.99958 7.96672 6.99958 7.00014C6.99958 6.03356 7.78304 5.2501 8.74962 5.2501C9.7162 5.2501 10.4997 6.03356 10.4997 7.00014C10.4997 7.96672 9.7162 8.75018 8.74962 8.75018ZM22.7499 22.7505H19.2498V15.7503C19.2498 14.7837 18.4664 14.0003 17.4998 14.0003C16.5332 14.0003 15.7498 14.7837 15.7498 15.7503V22.7505H12.2497V10.5002H15.7498V12.6731C16.4716 11.6813 17.5748 10.5002 18.8125 10.5002C20.987 10.5002 22.7499 12.4591 22.7499 14.8756V22.751V22.7505Z" fill="white"/>
</svg>
