<svg width="28" height="28" viewBox="0 0 28 28" fill="none" xmlns="http://www.w3.org/2000/svg">
<path d="M4.66667 0C2.08933 0 0 2.08933 0 4.66667V23.3333C0 25.9107 2.08933 28 4.66667 28H23.3333C25.9107 28 28 25.9107 28 23.3333V4.66667C28 2.08933 25.9107 0 23.3333 0H4.66667ZM6.05729 6H11.349L15.1068 11.3398L19.6667 6H21.3333L15.8594 12.4089L22.6094 22H17.319L12.9583 15.8047L7.66667 22H6L12.2057 14.7357L6.05729 6ZM8.60938 7.33333L18.0143 20.6667H20.0573L10.6523 7.33333H8.60938Z" fill="white"/>
</svg>
