<svg width="344" height="134" viewBox="0 0 344 134" fill="none" xmlns="http://www.w3.org/2000/svg">
<path d="M23.3535 96.3171C23.8069 96.859 24.2151 97.4009 24.6685 97.9428C27.3893 101.059 27.1626 105.935 24.8953 108.961C22.8093 111.715 20.0885 113.025 16.6422 112.98C11.4727 112.935 6.25782 112.98 1.08831 112.98C0.816234 112.98 0.544155 112.98 0.226729 112.98C0.226729 102.233 0.226729 91.5306 0.226729 80.6931C0.408115 80.6931 0.634848 80.6931 0.861581 80.6931C6.03109 80.6931 11.2006 80.6931 16.3701 80.6931C22.6733 80.7383 27.2533 86.6989 25.6208 92.7047C25.3034 93.8336 24.7592 94.8721 23.8976 95.6849C23.6709 95.9107 23.4442 96.1817 23.2174 96.4075C23.2174 96.4075 23.3081 96.3623 23.3535 96.3171ZM6.16713 106.929C6.39386 106.929 6.57525 106.974 6.71129 106.974C10.0669 106.974 13.3772 106.974 16.7329 106.974C18.9095 106.974 20.542 105.394 20.5873 103.361C20.5873 101.239 18.9549 99.6587 16.7329 99.6587C13.604 99.6587 10.4751 99.6587 7.34614 99.6587C6.98337 99.6587 6.62059 99.6587 6.21247 99.6587C6.16713 102.097 6.16713 104.49 6.16713 106.929ZM6.21247 86.7892C6.16713 86.9247 6.12178 87.015 6.12178 87.1053C6.12178 89.2728 6.12178 91.3951 6.12178 93.5626C6.12178 93.969 6.34851 94.0142 6.66594 94.0142C7.84495 94.0142 9.06931 94.0142 10.2483 94.0142C12.3796 94.0142 14.4655 94.0593 16.5968 93.9239C18.3654 93.8336 19.7257 92.2531 19.7711 90.492C19.7711 88.3697 18.1386 86.744 15.8713 86.744C12.8331 86.744 9.8402 86.744 6.80198 86.744C6.62059 86.744 6.43921 86.744 6.21247 86.7892Z" fill="white"/>
<path d="M53.2822 103.768C55.4135 106.839 57.5448 109.864 59.7214 112.98C57.7715 112.98 55.9123 112.889 54.1438 113.025C52.7834 113.115 51.9218 112.754 51.1963 111.535C50.0626 109.638 48.6569 107.877 47.4325 106.026C47.1604 105.619 46.8883 105.529 46.4349 105.529C43.8048 105.529 41.22 105.529 38.5899 105.529C38.0458 105.529 37.8644 105.665 37.8644 106.252C37.9097 108.193 37.8644 110.18 37.8644 112.122C37.8644 112.393 37.8644 112.664 37.8644 112.98C35.8691 112.98 33.9192 112.98 31.924 112.98C31.924 102.278 31.924 91.5758 31.924 80.7384C32.1507 80.7384 32.3774 80.7384 32.6042 80.7384C37.1842 80.7384 41.8095 80.648 46.3895 80.7384C51.7858 80.8738 56.003 83.1768 58.4064 88.0536C60.3563 91.9371 59.9935 95.8205 57.6808 99.5233C56.7285 101.104 55.4135 102.368 53.8717 103.362C53.6903 103.452 53.5089 103.632 53.2822 103.768ZM37.8644 86.6538C37.819 86.9247 37.819 87.0602 37.819 87.1957C37.819 91.1242 37.819 95.098 37.819 99.0266C37.819 99.5684 38.0458 99.6587 38.4992 99.6587C40.9933 99.6587 43.442 99.7039 45.9361 99.6136C46.9337 99.5684 47.9767 99.433 48.9289 99.1169C51.6951 98.2589 53.645 95.5947 53.5089 92.9305C53.3729 89.5889 50.38 86.9699 47.0697 86.699C45.4373 86.5635 43.8048 86.6086 42.127 86.6086C40.7212 86.6538 39.3608 86.6538 37.8644 86.6538Z" fill="white"/>
<path d="M77.0891 80.7383C77.3612 80.7383 77.6333 80.7383 77.86 80.7383C81.9866 80.7383 86.0678 80.7383 90.1943 80.7383C98.0393 80.7383 104.569 85.9764 106.247 93.5627C107.789 100.652 104.07 108.238 97.4951 111.354C95.1824 112.483 92.7337 112.98 90.1943 112.98C86.0678 112.98 81.9866 112.98 77.86 112.98C77.6333 112.98 77.3612 112.98 77.0891 112.98C77.0891 102.233 77.0891 91.5306 77.0891 80.7383ZM83.0749 86.7441C83.0749 93.5175 83.0749 100.246 83.0749 106.974C83.347 106.974 83.619 106.974 83.8458 106.974C85.9771 106.974 88.063 106.929 90.1943 106.974C93.5499 107.019 96.2254 105.664 98.3113 103.091C102.211 98.1686 100.533 90.6275 94.9103 87.7827C93.6406 87.1505 92.2349 86.7441 90.8292 86.7441C88.2897 86.7441 85.705 86.7441 83.0749 86.7441Z" fill="white"/>
<path d="M137.717 99.8393C136.357 99.8393 135.087 99.7941 133.818 99.8393C133.137 99.8844 132.956 99.6135 133.001 98.9813C133.047 97.5363 133.047 96.0462 133.001 94.6012C133.001 94.0141 133.137 93.7884 133.772 93.8335C136.992 93.8787 140.212 93.8335 143.431 93.8335C143.93 93.8335 144.111 93.969 144.157 94.5109C144.474 97.4912 144.202 100.426 143.023 103.226C141.164 107.787 137.944 111.038 133.364 112.844C128.467 114.786 123.569 114.56 118.944 112.077C113.865 109.412 110.827 105.168 109.92 99.478C109.058 93.8787 110.646 89.0018 114.545 84.8926C117.493 81.822 121.121 80.1061 125.383 79.6997C130.145 79.2481 134.362 80.6028 138.08 83.6282C138.171 83.7186 138.262 83.7637 138.398 83.8992C137.083 85.4345 135.813 86.9246 134.453 88.5051C131.822 86.3376 128.875 85.3442 125.519 85.7957C123.116 86.1118 121.03 87.1053 119.307 88.776C115.679 92.1627 114.772 97.3557 117.085 101.916C119.261 106.206 123.841 108.464 128.149 107.967C133.5 107.38 136.992 103.361 137.717 99.8393Z" fill="white"/>
<path d="M169.007 93.7884C169.007 95.8205 169.007 97.717 169.007 99.749C164.336 99.749 159.665 99.749 154.949 99.749C154.949 102.233 154.949 104.581 154.949 107.019C161.388 107.019 167.828 107.019 174.312 107.019C174.312 109.051 174.312 110.993 174.312 112.98C165.878 112.98 157.443 112.98 148.963 112.98C148.963 102.278 148.963 91.5758 148.963 80.7383C149.19 80.7383 149.417 80.7383 149.644 80.7383C157.625 80.7383 165.606 80.7383 173.587 80.7383C174.221 80.7383 174.403 80.919 174.358 81.506C174.312 82.9961 174.358 84.4863 174.358 85.9313C174.358 86.1571 174.312 86.428 174.312 86.6989C167.828 86.6989 161.434 86.6989 154.949 86.6989C154.949 89.0922 154.949 91.3952 154.949 93.7433C159.665 93.7884 164.291 93.7884 169.007 93.7884Z" fill="white"/>
<path d="M284.368 86.6989C284.368 89.0922 284.368 91.3952 284.368 93.7433C289.039 93.7433 293.71 93.7433 298.426 93.7433C298.426 95.7301 298.426 97.6719 298.426 99.6587C298.154 99.6587 297.836 99.7039 297.564 99.7039C293.392 99.7039 289.266 99.7039 285.094 99.7039C284.504 99.7039 284.278 99.8394 284.278 100.472C284.323 102.368 284.278 104.31 284.278 106.206C284.278 106.432 284.278 106.658 284.323 106.929C290.807 106.929 297.247 106.929 303.731 106.929C303.731 108.961 303.731 110.903 303.731 112.935C295.251 112.935 286.817 112.935 278.337 112.935C278.337 102.187 278.337 91.4855 278.337 80.7383C286.772 80.7383 295.206 80.7383 303.731 80.7383C303.731 82.68 303.731 84.6669 303.731 86.6989C297.292 86.6989 290.853 86.6989 284.368 86.6989Z" fill="white"/>
<path d="M208.549 112.98C206.554 112.98 204.604 112.98 202.563 112.98C202.563 108.645 202.563 104.265 202.563 99.8845C196.895 99.8845 191.317 99.8845 185.649 99.8845C185.649 104.219 185.649 108.6 185.649 112.98C183.608 112.98 181.658 112.98 179.708 112.98C179.708 102.278 179.708 91.5306 179.708 80.7834C181.658 80.7834 183.608 80.7834 185.649 80.7834C185.649 85.1184 185.649 89.4082 185.649 93.7432C191.317 93.7432 196.895 93.7432 202.518 93.7432C202.518 89.4082 202.518 85.1184 202.518 80.7834C204.558 80.7834 206.508 80.7834 208.549 80.7834C208.549 91.4854 208.549 102.187 208.549 112.98Z" fill="white"/>
<path d="M246.186 112.98C244.055 112.98 242.015 112.98 239.974 112.98C239.793 112.98 239.475 112.799 239.384 112.619C238.886 111.58 238.432 110.541 237.979 109.503C237.797 109.096 237.616 108.916 237.117 108.916C231.721 108.916 226.325 108.916 220.928 108.916C220.52 108.916 220.294 109.051 220.158 109.458C219.749 110.541 219.296 111.58 218.797 112.619C218.706 112.799 218.48 113.025 218.298 113.025C216.212 113.07 214.172 113.025 211.995 113.025C212.177 112.573 212.358 112.167 212.539 111.761C216.983 101.646 221.427 91.4855 225.826 81.3254C226.007 80.919 226.234 80.7383 226.733 80.7383C228.229 80.7835 229.771 80.7835 231.267 80.7383C231.812 80.7383 232.038 80.919 232.265 81.3705C234.986 87.6472 237.752 93.8788 240.518 100.155C242.287 104.174 244.055 108.238 245.869 112.257C245.96 112.438 246.05 112.709 246.186 112.98ZM229.091 88.46C227.005 93.4272 224.964 98.2137 222.924 103.045C227.096 103.045 231.131 103.045 235.303 103.045C233.217 98.1686 231.222 93.4272 229.091 88.46Z" fill="white"/>
<path d="M241.289 80.7383C243.556 80.7383 245.778 80.7383 248 80.7383C251.356 88.8664 254.712 96.9945 258.113 105.303C258.249 105.032 258.385 104.852 258.43 104.671C261.604 96.9042 264.824 89.1374 267.953 81.3254C268.134 80.8738 268.316 80.6932 268.814 80.7383C270.764 80.7835 272.759 80.7383 274.845 80.7383C270.356 91.5306 265.912 102.278 261.468 112.98C259.201 112.98 256.979 112.98 254.666 112.98C250.222 102.278 245.778 91.5306 241.289 80.7383Z" fill="white"/>
<path d="M332.572 112.935C332.027 113.16 331.801 112.799 331.529 112.483C326.314 105.213 321.054 97.9428 315.793 90.6275C315.612 90.4017 315.431 90.1759 315.113 89.9501C315.113 97.5815 315.113 105.258 315.113 112.935C313.073 112.935 311.123 112.935 309.082 112.935C309.082 102.233 309.082 91.5306 309.082 80.7383C309.263 80.7383 309.445 80.6931 309.626 80.6931C311.531 80.6931 313.435 80.6931 315.295 80.6931C315.612 80.6931 315.975 80.9189 316.156 81.1447C321.507 88.5955 326.858 96.0462 332.209 103.497C332.345 103.723 332.481 103.994 332.481 104.219C332.481 107.019 332.481 109.819 332.481 112.618C332.617 112.754 332.572 112.844 332.572 112.935Z" fill="white"/>
<path d="M70.65 112.935C68.6547 112.935 66.7501 112.935 64.7549 112.935C64.7549 102.233 64.7549 91.4855 64.7549 80.7383C66.7048 80.7383 68.6547 80.7383 70.65 80.7383C70.65 91.4855 70.65 102.187 70.65 112.935Z" fill="white"/>
<path d="M0 128.107C0.0453466 127.881 0.181386 127.655 0.181386 127.43C0.408119 125.262 2.40337 123.275 4.94277 122.824C7.02872 122.417 9.61347 123.637 10.6111 125.443C10.6564 125.533 10.7018 125.669 10.7471 125.759C10.5204 125.894 10.2937 125.985 10.1123 126.12C9.79486 126.301 9.61347 126.256 9.38674 125.94C8.70654 124.901 7.75426 124.314 6.5299 124.088C4.26258 123.682 1.81386 125.398 1.49644 127.701C1.13366 130.455 3.26495 132.848 6.03109 132.713C7.25545 132.668 8.29842 132.081 9.06931 131.178C9.74951 130.365 9.74951 130.365 10.7925 130.997C10.5204 131.403 10.2937 131.81 9.93089 132.171C8.38911 133.797 6.48456 134.339 4.30792 133.797C2.08594 133.255 0.816238 131.72 0.226733 129.552C0.13604 129.236 0.0906931 128.92 0 128.604C0 128.468 0 128.288 0 128.107Z" fill="white"/>
<path d="M152.002 125.623C151.503 126.707 150.959 127.746 150.46 128.829C149.78 130.229 149.1 131.674 148.465 133.074C148.193 133.661 147.784 133.661 147.286 133.706C146.741 133.751 146.605 133.435 146.379 133.074C145.29 130.726 144.157 128.378 143.023 126.03C142.978 125.894 142.887 125.759 142.66 125.669C142.66 125.894 142.615 126.12 142.615 126.346C142.615 128.559 142.615 130.771 142.615 133.029C142.615 133.481 142.57 133.751 142.025 133.751C141.436 133.751 141.391 133.481 141.391 133.029C141.391 130.004 141.391 126.978 141.391 123.953C141.391 123.411 141.572 123.23 142.116 123.185C142.932 123.14 143.34 123.411 143.658 124.178C144.746 126.617 145.925 129.055 147.104 131.494C147.195 131.674 147.331 131.855 147.512 132.171C147.694 131.81 147.83 131.584 147.921 131.358C149.1 128.875 150.279 126.346 151.412 123.862C151.684 123.275 152.909 122.914 153.407 123.275C153.543 123.366 153.589 123.636 153.589 123.817C153.589 126.933 153.589 130.049 153.589 133.164C153.589 133.751 153.271 133.751 152.863 133.751C152.41 133.751 152.228 133.616 152.228 133.164C152.228 130.907 152.228 128.694 152.228 126.436C152.228 126.21 152.228 125.985 152.228 125.714C152.138 125.669 152.047 125.623 152.002 125.623Z" fill="white"/>
<path d="M280.196 125.623C279.652 126.707 279.153 127.836 278.609 128.92C277.929 130.32 277.249 131.719 276.659 133.119C276.433 133.706 276.024 133.661 275.526 133.706C275.027 133.751 274.8 133.481 274.619 133.074C273.485 130.681 272.397 128.333 271.263 125.985C271.218 125.849 271.127 125.759 270.9 125.669C270.855 125.894 270.855 126.12 270.855 126.301C270.855 128.513 270.855 130.726 270.855 132.984C270.855 133.435 270.81 133.751 270.22 133.751C269.676 133.751 269.631 133.481 269.631 133.029C269.631 129.958 269.631 126.933 269.631 123.862C269.631 123.32 269.812 123.185 270.311 123.185C271.444 123.185 271.399 123.185 271.853 124.133C272.986 126.572 274.165 129.055 275.344 131.494C275.435 131.674 275.526 131.81 275.707 132.126C275.888 131.81 276.024 131.584 276.115 131.358C277.294 128.875 278.473 126.346 279.652 123.862C279.924 123.275 281.103 122.914 281.647 123.23C281.783 123.32 281.829 123.546 281.829 123.682C281.829 126.843 281.829 130.004 281.829 133.164C281.829 133.706 281.511 133.706 281.103 133.706C280.695 133.706 280.423 133.661 280.423 133.119C280.423 130.861 280.423 128.649 280.423 126.391C280.423 126.165 280.423 125.894 280.423 125.669C280.332 125.669 280.242 125.623 280.196 125.623Z" fill="white"/>
<path d="M194.129 131.855C194.129 131.449 194.174 131.223 194.174 130.997C194.174 128.649 194.174 126.301 194.174 123.908C194.174 123.366 194.31 123.14 194.899 123.14C195.444 123.14 195.58 123.366 195.58 123.862C195.58 126.933 195.58 129.958 195.58 133.029C195.58 133.571 195.398 133.706 194.854 133.706C194.083 133.752 193.584 133.481 193.131 132.848C191.453 130.365 189.685 127.926 187.961 125.443C187.871 125.307 187.735 125.172 187.508 124.901C187.463 125.352 187.417 125.578 187.417 125.804C187.417 128.197 187.417 130.591 187.417 133.029C187.417 133.481 187.372 133.752 186.782 133.752C186.238 133.752 186.148 133.526 186.148 133.074C186.148 130.004 186.148 126.933 186.148 123.862C186.148 123.366 186.329 123.23 186.828 123.185C187.644 123.14 188.143 123.366 188.596 124.088C190.229 126.527 191.952 128.92 193.63 131.313C193.766 131.449 193.902 131.584 194.129 131.855Z" fill="white"/>
<path d="M314.569 124.901C314.524 125.352 314.524 125.623 314.524 125.894C314.524 128.288 314.524 130.636 314.524 133.029C314.524 133.481 314.478 133.752 313.934 133.752C313.345 133.752 313.299 133.481 313.299 133.029C313.299 130.004 313.299 126.978 313.299 123.953C313.299 123.411 313.481 123.23 314.025 123.185C314.841 123.14 315.295 123.411 315.703 124.088C317.335 126.527 319.058 128.92 320.736 131.313C320.827 131.449 320.963 131.584 321.235 131.9C321.235 131.494 321.28 131.268 321.28 131.042C321.28 128.649 321.28 126.301 321.28 123.908C321.28 123.366 321.462 123.23 321.961 123.23C322.505 123.23 322.641 123.411 322.641 123.953C322.641 127.023 322.641 130.049 322.641 133.119C322.641 133.661 322.459 133.797 321.961 133.842C321.19 133.887 320.691 133.661 320.237 132.984C318.56 130.5 316.791 128.062 315.068 125.578C314.977 125.307 314.841 125.172 314.569 124.901Z" fill="white"/>
<path d="M236.8 124.269C236.482 124.585 236.21 124.811 235.847 125.127C234.668 124.269 233.353 123.727 231.902 124.178C231.131 124.404 230.315 124.856 229.726 125.443C228.32 126.843 228.138 128.965 229.136 130.636C230.088 132.171 231.993 133.029 233.671 132.623C235.575 132.171 236.981 130.816 237.117 129.055C236.89 129.01 236.664 128.965 236.437 128.965C235.938 129.01 235.711 128.875 235.711 128.288C235.711 127.701 236.029 127.701 236.437 127.701C236.981 127.701 237.525 127.701 238.069 127.701C238.432 127.701 238.614 127.836 238.614 128.197C238.568 131.358 236.165 133.752 233.308 133.932C230.406 134.113 228.093 132.126 227.458 129.733C226.551 126.346 229.181 122.779 232.718 122.688C234.215 122.733 235.53 123.23 236.8 124.269Z" fill="white"/>
<path d="M249.95 128.423C249.95 126.888 249.95 125.353 249.95 123.862C249.95 123.321 250.132 123.185 250.676 123.185C252.898 123.185 255.12 123.185 257.296 123.185C257.75 123.185 257.977 123.275 257.977 123.817C257.977 124.359 257.75 124.449 257.296 124.449C255.482 124.449 253.669 124.449 251.9 124.449C251.401 124.449 251.22 124.585 251.22 125.082C251.265 125.759 251.265 126.481 251.22 127.159C251.22 127.655 251.401 127.791 251.855 127.791C253.079 127.791 254.349 127.791 255.573 127.791C256.027 127.791 256.208 127.881 256.208 128.378C256.208 128.875 256.027 129.055 255.528 129.01C254.349 128.965 253.124 129.01 251.945 129.01C251.356 129.01 251.129 129.191 251.175 129.778C251.22 130.365 251.22 130.997 251.175 131.584C251.129 132.216 251.401 132.352 251.991 132.352C253.714 132.307 255.482 132.352 257.206 132.352C257.75 132.352 257.977 132.442 257.977 133.074C257.977 133.706 257.659 133.752 257.206 133.752C255.074 133.752 252.898 133.706 250.766 133.752C250.086 133.752 249.95 133.526 249.95 132.894C249.95 131.403 249.95 129.913 249.95 128.423Z" fill="white"/>
<path d="M297.655 133.706C296.521 133.706 295.387 133.706 294.254 133.706C293.8 133.706 293.664 133.571 293.664 133.119C293.664 130.004 293.664 126.888 293.664 123.772C293.664 123.321 293.8 123.185 294.254 123.185C296.521 123.185 298.788 123.185 301.101 123.185C301.6 123.185 301.691 123.411 301.691 123.817C301.691 124.314 301.509 124.449 301.056 124.404C299.242 124.404 297.428 124.404 295.66 124.404C295.07 124.404 294.889 124.585 294.934 125.127C294.979 125.759 294.979 126.436 294.934 127.068C294.934 127.565 295.07 127.746 295.614 127.746C296.839 127.701 298.063 127.746 299.287 127.746C299.741 127.746 300.013 127.836 300.013 128.378C300.013 128.92 299.786 129.01 299.333 129.01C298.108 128.965 296.884 129.01 295.66 129.01C295.161 129.01 294.979 129.146 294.979 129.688C295.025 130.365 295.025 131.087 294.979 131.765C294.979 132.216 295.115 132.397 295.614 132.397C297.428 132.397 299.242 132.397 301.01 132.397C301.555 132.397 301.736 132.532 301.736 133.119C301.736 133.706 301.464 133.797 301.01 133.797C299.831 133.706 298.743 133.706 297.655 133.706Z" fill="white"/>
<path d="M103.617 133.571C102.393 133.842 102.211 133.797 101.848 132.758C101.667 132.216 101.395 132.036 100.805 132.036C99.2183 132.081 97.5858 132.081 95.9986 132.036C95.4091 132.036 95.1371 132.216 94.9557 132.713C94.5022 133.752 94.4569 133.752 93.2325 133.571C93.3232 133.345 93.3685 133.119 93.4592 132.894C94.8196 129.778 96.1347 126.662 97.4951 123.591C97.5858 123.366 97.9485 123.14 98.1753 123.14C98.5834 123.095 99.0369 122.959 99.2636 123.501C100.76 126.888 102.166 130.229 103.617 133.571ZM98.538 125.082C98.4474 125.082 98.402 125.082 98.3113 125.082C97.4951 126.933 96.7242 128.784 95.8626 130.681C97.5858 130.681 99.2183 130.681 100.941 130.681C100.125 128.739 99.3089 126.933 98.538 125.082Z" fill="white"/>
<path d="M217.029 133.616C215.804 133.842 215.714 133.797 215.305 132.758C215.124 132.216 214.807 132.036 214.262 132.081C212.675 132.126 211.088 132.126 209.546 132.081C208.957 132.081 208.639 132.216 208.413 132.758C207.959 133.842 207.914 133.797 206.644 133.616C207.007 132.713 207.37 131.855 207.778 130.952C208.821 128.513 209.909 126.12 210.907 123.682C211.088 123.275 211.315 123.14 211.723 123.14C212.131 123.185 212.539 123.05 212.766 123.591C214.126 126.843 215.577 130.094 216.938 133.345C217.029 133.435 216.983 133.526 217.029 133.616ZM214.398 130.681C213.537 128.739 212.766 126.888 211.95 125.082C211.859 125.082 211.814 125.082 211.723 125.082C210.907 126.933 210.136 128.784 209.274 130.681C211.043 130.681 212.675 130.681 214.398 130.681Z" fill="white"/>
<path d="M31.4705 133.571C30.3369 133.842 30.0648 133.797 29.7473 132.848C29.5206 132.216 29.2032 132.036 28.5683 132.081C27.0266 132.126 25.4394 132.126 23.8976 132.081C23.3535 132.081 23.0361 132.261 22.8093 132.758C22.3559 133.797 22.3105 133.797 21.0408 133.661C21.4036 132.758 21.7664 131.9 22.1291 130.997C23.1721 128.559 24.2151 126.12 25.3034 123.682C25.3941 123.456 25.7115 123.23 25.9836 123.23C26.3464 123.185 26.8452 123.05 27.0719 123.591C28.5683 126.888 30.0194 130.184 31.4705 133.571ZM26.3917 125.082C26.301 125.082 26.2557 125.082 26.165 125.082C25.3487 126.933 24.5778 128.784 23.7616 130.681C25.4848 130.681 27.1173 130.681 28.8404 130.681C27.9788 128.739 27.1626 126.933 26.3917 125.082Z" fill="white"/>
<path d="M175.083 133.571C173.949 133.887 173.677 133.797 173.36 132.848C173.133 132.216 172.816 132.036 172.181 132.081C170.639 132.126 169.052 132.126 167.51 132.081C166.966 132.081 166.649 132.261 166.422 132.758C165.968 133.797 165.923 133.797 164.653 133.661C165.016 132.803 165.379 131.945 165.742 131.087C166.785 128.604 167.873 126.165 168.961 123.682C169.052 123.456 169.369 123.23 169.641 123.23C170.004 123.185 170.503 123.05 170.73 123.591C172.226 126.888 173.632 130.184 175.083 133.571ZM167.374 130.681C169.097 130.681 170.73 130.681 172.453 130.681C171.637 128.739 170.82 126.888 170.004 125.082C169.914 125.082 169.868 125.082 169.777 125.082C169.007 126.933 168.19 128.739 167.374 130.681Z" fill="white"/>
<path d="M42.7165 128.423C42.7165 126.888 42.7165 125.353 42.7165 123.862C42.7165 123.366 42.8525 123.185 43.3513 123.185C44.7571 123.23 46.2081 123.185 47.6139 123.23C49.6091 123.275 51.2416 125.036 51.2416 126.978C51.2416 128.965 49.5638 130.726 47.6139 130.771C46.6163 130.816 45.6186 130.816 44.621 130.771C44.1222 130.771 43.8955 130.952 43.8955 131.494C43.9408 131.945 43.8955 132.397 43.8955 132.848C43.8955 133.255 44.0769 133.752 43.306 133.752C42.5351 133.752 42.6711 133.3 42.6711 132.848C42.7165 131.358 42.7165 129.868 42.7165 128.423ZM43.9408 126.933C43.9408 127.61 43.9408 128.333 43.9408 129.01C43.9408 129.371 44.0769 129.507 44.485 129.507C45.5279 129.507 46.5709 129.507 47.5685 129.507C48.8382 129.462 49.9719 128.243 49.9719 126.978C49.9719 125.714 48.8382 124.495 47.5685 124.449C46.5256 124.404 45.4826 124.449 44.485 124.449C44.1222 124.449 43.9408 124.585 43.9408 124.946C43.9408 125.578 43.9408 126.256 43.9408 126.933Z" fill="white"/>
<path d="M337.923 129.146C337.923 127.836 337.877 126.481 337.923 125.172C337.923 124.585 337.741 124.404 337.152 124.404C336.29 124.449 335.428 124.404 334.567 124.404C334.159 124.404 333.932 124.269 333.977 123.817C333.977 123.411 334.023 123.14 334.522 123.14C337.242 123.14 339.918 123.14 342.639 123.14C343.183 123.14 343.228 123.411 343.228 123.817C343.228 124.269 343.047 124.404 342.639 124.404C341.732 124.404 340.825 124.449 339.918 124.404C339.328 124.359 339.147 124.585 339.147 125.172C339.192 127.791 339.147 130.41 339.147 133.029C339.147 133.481 339.056 133.752 338.512 133.706C338.059 133.706 337.877 133.526 337.877 133.074C337.968 131.765 337.923 130.455 337.923 129.146Z" fill="white"/>
<path d="M79.1298 129.1C79.1298 127.746 79.1298 126.391 79.1298 125.082C79.1298 124.585 78.9937 124.404 78.4949 124.404C77.588 124.449 76.681 124.404 75.7741 124.404C75.3206 124.404 75.1846 124.269 75.1846 123.817C75.1846 123.411 75.23 123.14 75.7741 123.14C78.4949 123.14 81.1704 123.14 83.8912 123.14C84.3446 123.14 84.4353 123.366 84.4353 123.772C84.4353 124.178 84.39 124.404 83.8912 124.404C82.9842 124.359 82.0319 124.449 81.125 124.404C80.4902 124.359 80.3541 124.585 80.3541 125.172C80.3995 127.746 80.3541 130.32 80.3541 132.894C80.3541 133.345 80.3995 133.706 79.7193 133.706C79.0844 133.706 79.1298 133.345 79.1298 132.939C79.1298 131.674 79.1298 130.365 79.1298 129.1Z" fill="white"/>
<path d="M114.727 128.423C114.727 126.933 114.727 125.443 114.727 123.998C114.727 123.546 114.681 123.185 115.362 123.185C115.996 123.185 115.951 123.546 115.951 123.953C115.951 126.527 115.951 129.055 115.951 131.629C115.951 132.216 116.133 132.397 116.722 132.397C118.491 132.352 120.304 132.397 122.073 132.352C122.662 132.352 122.753 132.578 122.753 133.074C122.753 133.571 122.572 133.752 122.073 133.706C119.851 133.706 117.629 133.706 115.362 133.706C114.863 133.706 114.681 133.526 114.727 133.029C114.727 131.494 114.727 129.958 114.727 128.423Z" fill="white"/>
<path d="M63.7119 128.468C63.7119 130.004 63.7119 131.539 63.7119 133.029C63.7119 133.526 63.5759 133.706 63.0317 133.706C62.5329 133.706 62.4422 133.481 62.4422 133.029C62.4422 129.913 62.4422 126.843 62.4422 123.727C62.4422 123.275 62.5782 123.095 63.077 123.095C63.5305 123.095 63.7119 123.23 63.7119 123.727C63.6665 125.352 63.7119 126.933 63.7119 128.468Z" fill="white"/>
<path d="M343.092 0C343.092 0.406405 343.092 0.632185 343.092 0.812809C343.092 37.8408 343.092 74.9139 343.092 111.942C343.092 112.98 343.092 112.98 342.049 112.98C340.008 112.98 337.968 112.98 335.972 112.98C335.383 112.98 335.201 112.8 335.201 112.213C335.201 79.2038 335.201 46.1947 335.201 13.2307C335.201 12.9598 335.247 12.6437 335.428 12.4179C338.376 8.5345 340.915 4.47045 343.092 0Z" fill="#1D80B0"/>
<path d="M324.001 24.8358C324.001 25.1068 324.001 25.2874 324.001 25.5132C324.001 41.5436 324.001 57.574 324.001 73.5592C324.001 74.5075 324.001 74.5075 323.003 74.5075C320.963 74.5075 318.877 74.5075 316.836 74.5075C316.247 74.5075 316.111 74.3269 316.111 73.785C316.111 59.7866 316.111 45.8334 316.156 31.835C316.156 31.5189 316.292 31.1577 316.473 30.9771C318.922 28.9902 321.461 26.9582 324.001 24.8358Z" fill="#1D80B0"/>
<path d="M304.819 39.1051C304.819 39.4663 304.819 39.6921 304.819 39.9631C304.819 51.2069 304.819 62.4056 304.819 73.6495C304.819 74.5978 304.819 74.5978 303.867 74.5978C301.781 74.5978 299.695 74.5978 297.655 74.5978C297.156 74.5978 296.929 74.4623 296.929 73.9204C296.929 63.9861 296.929 54.0969 296.974 44.1626C296.974 43.8916 297.156 43.4852 297.382 43.3498C299.695 41.9951 302.053 40.6404 304.411 39.2857C304.457 39.2406 304.593 39.1954 304.819 39.1051Z" fill="#1D80B0"/>
<path d="M285.683 49.1298C285.683 49.4459 285.683 49.6717 285.683 49.8975C285.683 57.845 285.683 65.7473 285.683 73.6947C285.683 74.5527 285.683 74.5527 284.776 74.5527C282.69 74.5527 280.604 74.5527 278.564 74.5527C278.019 74.5527 277.793 74.4624 277.793 73.8302C277.793 66.831 277.793 59.877 277.793 52.8778C277.793 52.5165 277.838 52.2456 278.246 52.065C280.604 51.1167 283.008 50.1233 285.366 49.1298C285.411 49.175 285.502 49.175 285.683 49.1298Z" fill="#1D80B0"/>
<path d="M266.592 56.3548C266.592 56.6257 266.592 56.8515 266.592 57.0322C266.592 62.5863 266.592 68.1857 266.592 73.7399C266.592 74.3721 266.411 74.5978 265.776 74.5978C263.645 74.5527 261.513 74.5527 259.427 74.5978C258.883 74.5978 258.702 74.4172 258.702 73.8754C258.702 68.9985 258.702 64.1216 258.702 59.2448C258.702 58.7932 258.838 58.5675 259.291 58.432C261.604 57.7546 263.871 57.0773 266.139 56.4C266.275 56.3548 266.411 56.4 266.592 56.3548Z" fill="#1D80B0"/>
</svg>
